<svg id="CNTC" xmlns="http://www.w3.org/2000/svg" viewBox="0 0 120 40"><defs><style>.cls-1{fill:#a6a6a6;}.cls-2{fill:#fff;}</style></defs><title>工作區域 1</title><path class="cls-1" d="M110.44-.06,9.53,0h-2a13.21,13.21,0,0,0-2,.18,6.67,6.67,0,0,0-1.9.63A6.44,6.44,0,0,0,2,2,6.26,6.26,0,0,0,.82,3.62a6.6,6.6,0,0,0-.62,1.9,13,13,0,0,0-.18,2c0,.31,0,.61,0,.92V31.56c0,.31,0,.61,0,.92a13,13,0,0,0,.18,2,6.59,6.59,0,0,0,.63,1.9A6.21,6.21,0,0,0,2,38a6.27,6.27,0,0,0,1.62,1.18,6.7,6.7,0,0,0,1.9.63,13.45,13.45,0,0,0,2,.18h2l100.91-.06h2a13.28,13.28,0,0,0,2-.18,6.8,6.8,0,0,0,1.91-.63A6.28,6.28,0,0,0,118,37.94a6.39,6.39,0,0,0,1.18-1.61,6.6,6.6,0,0,0,.62-1.9,13.51,13.51,0,0,0,.19-2c0-.31,0-.61,0-.92s0-.72,0-1.09V9.48c0-.37,0-.73,0-1.09s0-.61,0-.92a13.51,13.51,0,0,0-.19-2,6.62,6.62,0,0,0-.62-1.9,6.47,6.47,0,0,0-2.8-2.8,6.77,6.77,0,0,0-1.91-.63,13,13,0,0,0-2-.18h-2Z"/><path d="M8.44,39.13h-.9A12.69,12.69,0,0,1,5.67,39,5.88,5.88,0,0,1,4,38.4a5.41,5.41,0,0,1-1.4-1,5.32,5.32,0,0,1-1-1.4,5.72,5.72,0,0,1-.54-1.66,12.41,12.41,0,0,1-.17-1.87c0-.21,0-.91,0-.91V8.44s0-.69,0-.89a12.37,12.37,0,0,1,.17-1.87A5.76,5.76,0,0,1,1.6,4a5.37,5.37,0,0,1,1-1.4A5.57,5.57,0,0,1,4,1.6a5.82,5.82,0,0,1,1.65-.54A12.59,12.59,0,0,1,7.54.89h.9L111.52.82h.91a12.38,12.38,0,0,1,1.86.16,5.94,5.94,0,0,1,1.67.55A5.59,5.59,0,0,1,118.38,4a5.76,5.76,0,0,1,.54,1.65,13,13,0,0,1,.17,1.89c0,.28,0,.59,0,.89s0,.73,0,1.09V30.41c0,.36,0,.72,0,1.08s0,.62,0,.93a12.73,12.73,0,0,1-.17,1.85,5.74,5.74,0,0,1-.54,1.67,5.48,5.48,0,0,1-1,1.39,5.41,5.41,0,0,1-1.4,1,5.86,5.86,0,0,1-1.67.55,12.54,12.54,0,0,1-1.87.16h-2Z"/><path class="cls-2" d="M41.17,16.55H37.12l-1,2.87H34.43L38.26,8.8H40l3.84,10.63H42.14Zm-3.63-1.33h3.21l-1.58-4.66h0Z"/><path class="cls-2" d="M52.17,15.55c0,2.41-1.29,4-3.23,4a2.63,2.63,0,0,1-2.44-1.36h0V22H44.87V11.68h1.54V13h0a2.75,2.75,0,0,1,2.47-1.37C50.88,11.6,52.17,13.15,52.17,15.55Zm-1.63,0c0-1.57-.81-2.6-2-2.6s-2,1.05-2,2.6.82,2.61,2,2.61,2-1,2-2.61Z"/><path class="cls-2" d="M60.7,15.55c0,2.41-1.29,4-3.23,4A2.63,2.63,0,0,1,55,18.15h0V22H53.4V11.68h1.54V13h0a2.75,2.75,0,0,1,2.47-1.37C59.41,11.6,60.7,13.15,60.7,15.55Zm-1.64,0c0-1.57-.81-2.6-2-2.6s-2,1.05-2,2.6.82,2.61,2,2.61S59.07,17.14,59.07,15.55Z"/><path class="cls-2" d="M66.34,16.47c.12,1.05,1.14,1.75,2.54,1.75s2.31-.69,2.31-1.64-.58-1.32-2-1.66l-1.38-.33c-2-.47-2.86-1.38-2.86-2.87,0-1.83,1.6-3.09,3.87-3.09s3.79,1.26,3.84,3.09H71.09c-.1-1.06-1-1.7-2.25-1.7s-2.16.65-2.16,1.59c0,.75.56,1.19,1.93,1.53l1.17.29c2.18.52,3.09,1.39,3.09,2.95,0,2-1.58,3.23-4.1,3.23-2.36,0-3.95-1.22-4.05-3.14Z"/><path class="cls-2" d="M76.3,9.84v1.83h1.47v1.26H76.3v4.27c0,.66.3,1,.94,1l.52,0V19.4a4.37,4.37,0,0,1-.88.07c-1.57,0-2.18-.59-2.18-2.09V12.94H73.57V11.68H74.7V9.84Z"/><path class="cls-2" d="M78.63,15.55c0-2.44,1.44-4,3.68-4s3.68,1.53,3.68,4-1.42,4-3.68,4S78.63,18,78.63,15.55Zm5.73,0c0-1.67-.77-2.66-2.06-2.66s-2.06,1-2.06,2.66.77,2.66,2.06,2.66S84.36,17.23,84.36,15.55Z"/><path class="cls-2" d="M87.29,11.68h1.52V13h0a1.85,1.85,0,0,1,1.86-1.4,2.45,2.45,0,0,1,.54.06v1.49a2.22,2.22,0,0,0-.71-.1,1.6,1.6,0,0,0-1.66,1.78v4.6H87.29Z"/><path class="cls-2" d="M98.59,17.15a3.11,3.11,0,0,1-3.34,2.37C93,19.52,91.6,18,91.6,15.59s1.41-4,3.59-4,3.49,1.47,3.49,3.82V16H93.2V16A2,2,0,0,0,95,18.23h.25a1.75,1.75,0,0,0,1.79-1.09Zm-5.38-2.31h3.87a1.86,1.86,0,0,0-1.76-2h-.14a2,2,0,0,0-2,2S93.21,14.83,93.21,14.84Z"/><path class="cls-2" d="M34.43,24h7.46v.78H38.34v1.1q.76.35,1.53.78t1.56.91l-.46.72-1.46-.91q-.65-.4-1.18-.66v4.61h-.79V24.82H34.43Z"/><path class="cls-2" d="M44,24.12h1.44v-.44h.76v.44h1.39v.63H46.2v.45h2q0-.35,0-.73v-.79h.74c0,.27,0,.53,0,.79s0,.5,0,.73h2v.66H49q0,.7.08,1.23c0,.36.08.67.13.93,0,.08,0,.16,0,.22l0,.2a9.64,9.64,0,0,0,.37-1,10.29,10.29,0,0,0,.28-1.16l.68.3a10.48,10.48,0,0,1-1,2.92,4.07,4.07,0,0,0,.16.39q.26.57.44.57t.29-1.28l.65.36q-.29,1.81-.84,1.82t-.92-.76a1.65,1.65,0,0,1-.23-.4,4.18,4.18,0,0,1-1,1l-.36-.5H46.18v.7h-.74v-.7H43.56V30h1.88v-.36H44V27.2h1.47v-.33H43.67v-.59h1.77V26h.74v.32h1.76v.59H46.18v.33h1.5v2.43h-1.5V30h1.75v.34a3.89,3.89,0,0,0,.85-1c-.05-.17-.1-.34-.14-.53l-.13-.59a15.21,15.21,0,0,1-.29-2.39H43.48V25.2h2v-.45H44Zm.63,4h.86v-.41h-.86Zm.86.92v-.44h-.86v.44Zm.64-1.34v.41H47v-.41ZM47,29.08v-.44h-.86v.44Zm2.21-5,.56-.36a7.74,7.74,0,0,1,.89,1.08l-.57.41c-.11-.17-.23-.35-.37-.54s-.31-.38-.5-.59Z"/><g id="_Group_" data-name=" Group "><g id="_Group_2" data-name=" Group 2"><path id="_Path_" data-name=" Path " class="cls-2" d="M24.77,20.3a5,5,0,0,1,2.36-4.15,5.07,5.07,0,0,0-4-2.16c-1.68-.18-3.31,1-4.16,1s-2.19-1-3.61-1a5.32,5.32,0,0,0-4.47,2.73C9,20.11,10.4,25,12.25,27.74c.93,1.33,2,2.81,3.43,2.75s1.91-.88,3.58-.88,2.14.88,3.59.85,2.43-1.33,3.32-2.67a11,11,0,0,0,1.52-3.09A4.78,4.78,0,0,1,24.77,20.3Z"/><path id="_Path_2" data-name=" Path 2" class="cls-2" d="M22,12.21a4.87,4.87,0,0,0,1.11-3.49,5,5,0,0,0-3.21,1.66,4.64,4.64,0,0,0-1.14,3.36A4.1,4.1,0,0,0,22,12.21Z"/></g></g></svg>