<svg id="CNTC" xmlns="http://www.w3.org/2000/svg" xmlns:xlink="http://www.w3.org/1999/xlink" viewBox="0 0 120 40"><defs><style>.cls-1{fill:#a6a6a6;}.cls-10,.cls-2,.cls-9{fill:#fff;}.cls-3{fill:url(#linear-gradient);}.cls-4{fill:url(#linear-gradient-2);}.cls-5{fill:url(#linear-gradient-3);}.cls-6{fill:url(#linear-gradient-4);}.cls-7{opacity:0.2;}.cls-7,.cls-8,.cls-9{isolation:isolate;}.cls-8{opacity:0.12;}.cls-9{opacity:0.25;}.cls-10{stroke:#fff;stroke-miterlimit:10;stroke-width:0.2px;}</style><linearGradient id="linear-gradient" x1="21.81" y1="33.22" x2="5.03" y2="16.44" gradientTransform="matrix(1, 0, 0, -1, 0, 42)" gradientUnits="userSpaceOnUse"><stop offset="0" stop-color="#00a0ff"/><stop offset="0.01" stop-color="#00a1ff"/><stop offset="0.26" stop-color="#00beff"/><stop offset="0.51" stop-color="#00d2ff"/><stop offset="0.76" stop-color="#00dfff"/><stop offset="1" stop-color="#00e3ff"/></linearGradient><linearGradient id="linear-gradient-2" x1="33.84" y1="21.93" x2="9.65" y2="21.93" gradientTransform="matrix(1, 0, 0, -1, 0, 42)" gradientUnits="userSpaceOnUse"><stop offset="0" stop-color="#ffe000"/><stop offset="0.41" stop-color="#ffbd00"/><stop offset="0.78" stop-color="orange"/><stop offset="1" stop-color="#ff9c00"/></linearGradient><linearGradient id="linear-gradient-3" x1="24.84" y1="19.64" x2="2.08" y2="-3.12" gradientTransform="matrix(1, 0, 0, -1, 0, 42)" gradientUnits="userSpaceOnUse"><stop offset="0" stop-color="#ff3a44"/><stop offset="1" stop-color="#c31162"/></linearGradient><linearGradient id="linear-gradient-4" x1="7.31" y1="41.76" x2="17.47" y2="31.59" gradientTransform="matrix(1, 0, 0, -1, 0, 42)" gradientUnits="userSpaceOnUse"><stop offset="0" stop-color="#32a071"/><stop offset="0.07" stop-color="#2da771"/><stop offset="0.48" stop-color="#15cf74"/><stop offset="0.8" stop-color="#06e775"/><stop offset="1" stop-color="#00f076"/></linearGradient></defs><title>工作區域 1 複本</title><rect x="0.01" y="0.07" width="119.98" height="40" rx="5" ry="5"/><path class="cls-1" d="M115,.87a4.2,4.2,0,0,1,4.2,4.2v30a4.2,4.2,0,0,1-4.2,4.2H5a4.2,4.2,0,0,1-4.2-4.2v-30A4.2,4.2,0,0,1,5,.87H115m0-.8H5a5,5,0,0,0-5,5v30a5,5,0,0,0,5,5H115a5,5,0,0,0,5-5v-30a5,5,0,0,0-5-5Z"/><path class="cls-2" d="M64.73,12.86a3.72,3.72,0,1,0,3.73,3.72A3.66,3.66,0,0,0,64.73,12.86Zm0,6a2.15,2.15,0,0,1-2.1-2.25,2.1,2.1,0,1,1,4.2,0A2.15,2.15,0,0,1,64.73,18.83Zm-8.14-6a3.72,3.72,0,1,0,3.73,3.72A3.66,3.66,0,0,0,56.59,12.86Zm0,6a2.15,2.15,0,0,1-2.1-2.25,2.1,2.1,0,1,1,4.2,0A2.15,2.15,0,0,1,56.59,18.83ZM46.91,14v1.58h3.77a3.29,3.29,0,0,1-.86,2,3.86,3.86,0,0,1-2.91,1.15,4.2,4.2,0,0,1,0-8.39,4,4,0,0,1,2.84,1.13l1.11-1.11a5.5,5.5,0,0,0-4-1.59,5.85,5.85,0,0,0-5.86,5.77,5.85,5.85,0,0,0,5.86,5.77,5.28,5.28,0,0,0,4-1.62A5.21,5.21,0,0,0,52.3,15a5.14,5.14,0,0,0-.08-1Zm39.6,1.23a3.46,3.46,0,0,0-3.18-2.37,3.53,3.53,0,0,0-3.51,3.72,3.64,3.64,0,0,0,3.69,3.72,3.7,3.7,0,0,0,3.1-1.65l-1.27-.84a2.12,2.12,0,0,1-1.83,1,1.89,1.89,0,0,1-1.8-1.13l5-2.06Zm-5.07,1.24a2,2,0,0,1,1.94-2.17,1.44,1.44,0,0,1,1.38.79Zm-4,3.61H79V9.14H77.4Zm-2.68-6.38h-.06a2.58,2.58,0,0,0-2-.83,3.72,3.72,0,0,0,0,7.44,2.53,2.53,0,0,0,2-.84h.06V20c0,1.42-.76,2.18-2,2.18a2.06,2.06,0,0,1-1.87-1.32l-1.42.59a3.54,3.54,0,0,0,3.3,2.2c1.92,0,3.53-1.13,3.53-3.87V13.08H74.73Zm-1.87,5.14a2.13,2.13,0,0,1-2.07-2.24,2.15,2.15,0,0,1,2.07-2.27,2.1,2.1,0,0,1,2,2.27A2.08,2.08,0,0,1,72.85,18.83ZM94.16,9.14H90.26V20.07h1.63V15.93h2.28a3.46,3.46,0,0,0,3.58-3.39A3.46,3.46,0,0,0,94.16,9.14Zm0,5.27H91.89V10.66h2.32a1.87,1.87,0,1,1,0,3.75Zm10.08-1.57a3.06,3.06,0,0,0-2.91,1.67l1.45.6a1.55,1.55,0,0,1,1.49-.8A1.57,1.57,0,0,1,106,15.72v.11a3.61,3.61,0,0,0-1.7-.42c-1.56,0-3.15.86-3.15,2.46a2.52,2.52,0,0,0,2.71,2.4A2.3,2.3,0,0,0,106,19.2H106V20h1.57V15.86C107.6,13.92,106.16,12.84,104.29,12.84Zm-.2,6c-.53,0-1.28-.27-1.28-.93,0-.84.93-1.17,1.73-1.17a2.91,2.91,0,0,1,1.49.37A2,2,0,0,1,104.09,18.83Zm9.25-5.75-1.87,4.74h-.06l-1.94-4.74h-1.76l2.91,6.62L109,23.38h1.7l4.48-10.3Zm-14.69,7h1.63V9.14H98.65Z"/><path class="cls-3" d="M10.45,7.6A2,2,0,0,0,10,9V31.13a2,2,0,0,0,.46,1.4l.07.07L22.91,20.21v-.29L10.52,7.53Z"/><path class="cls-4" d="M27,24.34l-4.13-4.13v-.29L27,15.79l.09.05L32,18.62c1.4.79,1.4,2.09,0,2.89l-4.89,2.78Z"/><path class="cls-5" d="M27.13,24.29l-4.22-4.22L10.45,32.53a1.63,1.63,0,0,0,2.08.06l14.61-8.3"/><path class="cls-6" d="M27.13,15.84,12.52,7.54a1.63,1.63,0,0,0-2.08.06L22.91,20.07Z"/><path class="cls-7" d="M27,24.2,12.52,32.45a1.67,1.67,0,0,1-2,0h0l-.07.07h0l.07.07h0a1.66,1.66,0,0,0,2,0l14.61-8.3Z"/><path class="cls-8" d="M10.45,32.38A2,2,0,0,1,10,31v.15a2,2,0,0,0,.46,1.4l.07-.07Z"/><path class="cls-8" d="M32,21.37,27,24.2l.09.09L32,21.51a1.75,1.75,0,0,0,1-1.44h0A1.86,1.86,0,0,1,32,21.37Z"/><path class="cls-9" d="M12.52,7.69,32,18.77a1.86,1.86,0,0,1,1,1.3h0a1.75,1.75,0,0,0-1-1.44L12.52,7.54C11.13,6.75,10,7.41,10,9v.15C10,7.56,11.13,6.9,12.52,7.69Z"/><path class="cls-10" d="M41.45,32.45h6.81V33H41.45Zm6.6-4.6v.5H41.71v-.5h2.86V26.31l.67,0c0,.05,0,.09-.15.1v1.38Zm-4.84.91a11.55,11.55,0,0,1,.71,3.17,2.62,2.62,0,0,0-.52.11,11.65,11.65,0,0,0-.67-3.16Zm4,.1A.21.21,0,0,1,47,29a23,23,0,0,1-1,3.28l-.45-.13a23.09,23.09,0,0,0,.91-3.42Z"/><path class="cls-10" d="M51.52,31.61a9.12,9.12,0,0,0-.72-.92l.39-.22a9.25,9.25,0,0,1,1.4,2l-.42.25a6.3,6.3,0,0,0-.39-.71l-2.46.77a.15.15,0,0,1-.1.12L49,32.29l.53-.13V26.73h2.7v3.48H50V32Zm.23-4.4H50v1h1.74ZM50,29.74h1.74v-1H50Zm5.63-3v4.65c0,.65-.32.66-1.4.66a2.07,2.07,0,0,0-.18-.53h.65c.37,0,.41,0,.41-.16V27.24H53.45v6.05h-.51V26.73Z"/><path class="cls-10" d="M63.36,27.38H60.18l-.08,0v1.31l0,0a19.53,19.53,0,0,1,2.81,1.64l-.35.45A18.82,18.82,0,0,0,60.1,29.2v4.08h-.53v-5.9h-3v-.5h6.76Z"/><path class="cls-10" d="M68.69,28.45A15.88,15.88,0,0,0,69,31a9,9,0,0,0,1-2.12l.59.17a.15.15,0,0,1-.16.08,9.16,9.16,0,0,1-1.23,2.49c.25.73.56,1.18.95,1.18.23,0,.32-.38.36-1.32a1.15,1.15,0,0,0,.41.26c-.09,1.19-.27,1.55-.8,1.55s-1-.46-1.27-1.22a6,6,0,0,1-1.32,1.22,1.76,1.76,0,0,0-.37-.38,5.54,5.54,0,0,0,.55-.4H66.24v.78h-.46v-.78H64.12v-.41h1.66v-.44H64.45V29.8h1.33v-.44H64.24V29h1.54v-.5l.62,0s-.05.08-.15.1V29h1.58v.39H66.25v.44h1.37v1.86H66.24v.44h1.61v.29a6.68,6.68,0,0,0,.82-.89,14.84,14.84,0,0,1-.48-3.07H64V28h1.75v-.65H64.37v-.42h1.41v-.63l.64,0c0,.05,0,.09-.15.11v.49h1.4v.42h-1.4V28h1.9c0-.55-.05-1.12-.05-1.69l.66,0c0,.06,0,.1-.15.11,0,.53,0,1,0,1.54h2.18v.44Zm-3.84,1.67v.46h1v-.46Zm0,.77v.47h1v-.47Zm2.37-.31v-.46h-1v.46Zm0,.77v-.47h-1v.47Zm2.32-4.93a5.79,5.79,0,0,1,1.08,1l-.38.29a5.75,5.75,0,0,0-1.07-1.08Z"/></svg>