<?xml version="1.0" encoding="utf-8"?>
<!-- Generator: Adobe Illustrator 21.0.0, SVG Export Plug-In . SVG Version: 6.00 Build 0)  -->
<svg version="1.1" id="圖層_1" xmlns="http://www.w3.org/2000/svg" xmlns:xlink="http://www.w3.org/1999/xlink" x="0px" y="0px"
	 viewBox="0 0 16 16" style="enable-background:new 0 0 16 16;" xml:space="preserve">
<style type="text/css">
	.st0{fill:#DD5000;}
</style>
<title>工作區域 1</title>
<path class="st0" d="M11,1.7V0.8H9.9v0.9H6.1V0.8H5v0.9H0v13.6h16V1.7H11z M5,2.8v0.9h1.1V2.8h3.8v0.8H11V2.8h3.8v1.9H1.1V2.8H5z
	 M1.1,14.1V5.8h13.7v8.3H1.1z"/>
<rect x="3.7" y="10.7" class="st0" width="1.9" height="1.9"/>
<rect x="7.1" y="10.7" class="st0" width="1.9" height="1.9"/>
<rect x="10.4" y="10.7" class="st0" width="1.9" height="1.9"/>
<rect x="7.1" y="7.3" class="st0" width="1.9" height="1.9"/>
<rect x="10.4" y="7.3" class="st0" width="1.9" height="1.9"/>
<rect x="3.7" y="7.3" class="st0" width="1.9" height="1.9"/>
</svg>
