<?xml version="1.0" encoding="utf-8"?>
<!-- Generator: Adobe Illustrator 21.0.0, SVG Export Plug-In . SVG Version: 6.00 Build 0)  -->
<svg version="1.1" id="Layer_1" xmlns="http://www.w3.org/2000/svg" xmlns:xlink="http://www.w3.org/1999/xlink" x="0px" y="0px"
	 viewBox="0 0 16 16" style="enable-background:new 0 0 16 16;" xml:space="preserve">
<style type="text/css">
	.st0{fill:#DD5000;}
</style>
<title>工作區域 1</title>
<path class="st0" d="M8,16c-4.4,0-8-3.6-8-8c0-2.1,0.8-4.2,2.3-5.7c3.1-3.1,8.2-3.1,11.3,0s3.1,8.2,0,11.3C12.2,15.2,10.1,16,8,16z
	 M8,1C4.1,1,1,4.1,1,8s3.1,7,7,7s7-3.1,7-7S11.9,1,8,1z"/>
<polygon class="st0" points="8.5,8.5 2.8,8.5 2.8,7.5 7.5,7.5 7.5,2.8 8.5,2.8 "/>
</svg>
