<svg id="Layer_1" data-name="Layer 1" xmlns="http://www.w3.org/2000/svg" viewBox="0 0 149.91 144.19"><defs><style>.cls-1{fill:#787878;}</style></defs><title>紀念商品(GRAY)</title><path class="cls-1" d="M41.89,2.91v6h.6l2.11,1.5-12,6.62h-.3V31.8l-5.72-.3L.05,58,26.54,84.48l5.72-5.72v68.33H135.2v0L150,136.56V2.91Zm9.63,10.53A3.07,3.07,0,0,0,53,11a4.34,4.34,0,0,0-.61-2.1h79.17l-3.31,1.5a1.92,1.92,0,0,0-1.51,1.81,2.27,2.27,0,0,0,.31,2.41l1.2,2.4H45.2ZM8.48,58,28.94,37.52l16.26.61,2.41,16.55L26.54,75.75Zm120.7,83.08H38.28V72.74L53.93,57.09,50.32,32.41,38,31.8v-9h91.21Zm6-1.2V17.05h0l-1.2-2.4,10.23-4.82V133.55Z" transform="translate(-0.05 -2.91)"/><path class="cls-1" d="M38.58,44.15h0a3.33,3.33,0,0,0-3.31,3.31h0a3.34,3.34,0,0,0,3.31,3.31h0a3.35,3.35,0,0,0,3.31-3.31h0A3.34,3.34,0,0,0,38.58,44.15Z" transform="translate(-0.05 -2.91)"/><path class="cls-1" d="M64.46,64.31a22.88,22.88,0,1,0,45.76,0V42.64h4.21v-6H100.29v6h3.91V64.31a16.86,16.86,0,0,1-33.72,0V42.64H74.7v-6H60.55v6h3.91Z" transform="translate(-0.05 -2.91)"/></svg>