<svg id="圖層_1" data-name="圖層 1" xmlns="http://www.w3.org/2000/svg" viewBox="0 0 147.5 150.5"><defs><style>.cls-1{fill:#dd5000;stroke:#dd5000;stroke-miterlimit:10;stroke-width:0.5px;}</style></defs><title>CIRCLE(ORANGE)</title><path class="cls-1" d="M12.31,103.78A67.45,67.45,0,0,1,7.5,79.46,64.58,64.58,0,0,1,61.83,15.53l-3.9,6.3a3.23,3.23,0,0,0,.9,4.2,2.71,2.71,0,0,0,1.5.3,3.58,3.58,0,0,0,2.7-1.5l9-14.41L58.53.52a3.23,3.23,0,0,0-4.2.6,3.23,3.23,0,0,0,.6,4.2l5.7,4.2A70.62,70.62,0,0,0,1.5,79.16a72.9,72.9,0,0,0,5.1,26.71,2.88,2.88,0,0,0,2.7,1.8,1.8,1.8,0,0,0,1.2-.3A2.52,2.52,0,0,0,12.31,103.78Z" transform="translate(-1.25 0.25)"/><path class="cls-1" d="M122.16,120.28a64.46,64.46,0,0,1-99.65.3h7.2a3,3,0,0,0,3-3,3.23,3.23,0,0,0-3-3H12.91l-1.5,16.81a3.27,3.27,0,0,0,2.7,3.3h.3a3,3,0,0,0,3-2.7l.6-7.2A69.85,69.85,0,0,0,72.34,150,70.06,70.06,0,0,0,127,124.19a2.9,2.9,0,0,0-.3-4.2A3.6,3.6,0,0,0,122.16,120.28Z" transform="translate(-1.25 0.25)"/><path class="cls-1" d="M148.27,104.38a3,3,0,0,0-3.9-1.5l-6.3,3a72.9,72.9,0,0,0,5.1-26.71A70.72,70.72,0,0,0,81,8.93c-1.8-.3-3,.9-3.3,2.7a3,3,0,0,0,2.7,3.3,64.57,64.57,0,0,1,56.73,64.23,63.76,63.76,0,0,1-5.1,24.91l-3.6-6.3a3.09,3.09,0,0,0-5.4,3l8.4,14.41,15-7.2A2.52,2.52,0,0,0,148.27,104.38Z" transform="translate(-1.25 0.25)"/></svg>