<?xml version="1.0" encoding="utf-8"?>
<!-- Generator: Adobe Illustrator 19.0.0, SVG Export Plug-In . SVG Version: 6.00 Build 0)  -->
<svg version="1.1" id="圖層_1" xmlns="http://www.w3.org/2000/svg" xmlns:xlink="http://www.w3.org/1999/xlink" x="0px" y="0px"
	 viewBox="0 0 50 50" style="enable-background:new 0 0 50 50;" xml:space="preserve">
<style type="text/css">
	.st0{fill:#767777;}
	.st1{fill:none;}
</style>
<path id="XMLID_19_" class="st0" d="M42.2,8.7c0-5-7.5-8.7-17.4-8.7C15.1,0,7.4,3.9,7.4,8.8c0,0.2,0,0.6,0,0.8c0,0.2,0,0.3,0,0.4
	v26.8c0,3.3,2.7,6,6,6l-2.9,5.7c-0.3,0.5-0.1,1.1,0.4,1.4c0.5,0.3,1.1,0.1,1.4-0.4l0.8-1.6h23.5l0.8,1.6c0.3,0.5,0.9,0.7,1.4,0.4
	c0.5-0.3,0.7-0.9,0.4-1.4l0,0l-2.9-5.7c3.3,0,6-2.7,6-6V10.1C42.3,10,42.2,8.9,42.2,8.7z M9.4,8.8C9.4,5.5,15.6,2,24.8,2
	c8.5,0,15.3,3,15.3,6.7v0.1c0,0,0.1,1,0.1,1.2H9.4V9.7C9.4,9.4,9.4,9,9.4,8.8z M9.4,12h30.9v16.2H9.4V12z M14.1,45.8l1.5-2.9H34
	l1.5,2.9H14.1z M36.2,40.9H13.4c-2.2,0-4-1.8-4-4v-6.5h30.9v6.5C40.3,39.1,38.5,40.9,36.2,40.9z"/>
<rect id="XMLID_5_" x="19.6" y="5.9" class="st0" width="10.5" height="2"/>
<path id="XMLID_15_" class="st0" d="M16.3,31.4c-2.2,0-3.9,1.8-3.9,3.9c0,2.2,1.8,3.9,3.9,3.9s3.9-1.8,3.9-3.9
	C20.2,33.2,18.4,31.4,16.3,31.4z M16.3,37.3c-1.1,0-1.9-0.9-1.9-1.9c0-1.1,0.9-1.9,1.9-1.9s1.9,0.9,1.9,1.9S17.3,37.3,16.3,37.3
	L16.3,37.3z"/>
<path id="XMLID_12_" class="st0" d="M33.4,31.4c-2.2,0-3.9,1.8-3.9,3.9c0,2.2,1.8,3.9,3.9,3.9s3.9-1.8,3.9-3.9
	C37.3,33.2,35.6,31.4,33.4,31.4z M33.4,37.3c-1.1,0-1.9-0.9-1.9-1.9s0.9-1.9,1.9-1.9s1.9,0.9,1.9,1.9S34.4,37.3,33.4,37.3L33.4,37.3
	z"/>
<rect id="XMLID_11_" class="st1" width="50" height="50"/>
</svg>
