<?xml version="1.0" encoding="utf-8"?>
<!-- Generator: Adobe Illustrator 21.0.0, SVG Export Plug-In . SVG Version: 6.00 Build 0)  -->
<svg version="1.1" id="圖層_1" xmlns="http://www.w3.org/2000/svg" xmlns:xlink="http://www.w3.org/1999/xlink" x="0px" y="0px"
	 viewBox="0 0 40 40" style="enable-background:new 0 0 40 40;" xml:space="preserve">
<style type="text/css">
	.st0{fill:#777777;}
	.st1{fill:none;stroke:#777777;stroke-width:1.3;stroke-miterlimit:10;}
</style>
<g>
	<path class="st0" d="M17.2,0.9c0.4-0.3,0.7-0.5,1.2-0.6c0.4-0.1,0.9-0.2,1.3-0.1c0.9,0.1,1.7,0.6,2.2,1.1c1.2,1.1,1.6,2.7,1.7,4.2
		c0.1,1.4,0,2.8-0.1,4.2c-0.1,1.4-0.3,2.8-0.6,4.1c-0.6,2.7-1.6,5.3-2.7,7.8c-0.6,1.3-1.2,2.5-1.9,3.7c-0.4,0.6-0.7,1.2-1.1,1.7
		c-0.4,0.6-0.7,1.1-1.1,1.7c-0.4,0.6-0.9,1.1-1.4,1.6c-0.2,0.2-0.4,0.4-0.8,0.4c-0.4,0-0.8-0.2-0.9-0.5c-0.1-0.2-0.1-0.3-0.1-0.5
		c0-0.2,0.1-0.4,0.2-0.5l0.3-0.4c0.7-1.2,1.2-2.4,1.7-3.6c1-2.5,1.7-5.1,2-7.7c0.3-2.7,0.2-5.3-0.2-8c-0.2-1.3-0.4-2.7-0.6-4.1
		C16.1,4.7,16,4,16.1,3.2C16.2,2.4,16.6,1.5,17.2,0.9z M18.2,2c-0.4,0.3-0.6,0.8-0.7,1.3c-0.1,0.6,0,1.2,0,1.9
		c0.1,1.3,0.4,2.7,0.5,4c0.4,2.7,0.4,5.6,0.1,8.3c-0.4,2.8-1.1,5.5-2.2,8c-0.5,1.3-1.1,2.5-1.8,3.7l-0.3,0.5c0,0.1,0,0,0,0
		c0,0,0,0,0,0c0,0,0,0-0.1,0c-0.1,0,0,0,0.1-0.1c0.5-0.5,0.9-1,1.2-1.5c0.4-0.5,0.7-1.1,1.1-1.7c0.4-0.6,0.7-1.1,1.1-1.7
		c0.7-1.2,1.3-2.4,1.9-3.6c1.1-2.4,2-5,2.6-7.6c0.3-1.3,0.5-2.6,0.5-4c0.1-1.4,0.2-2.7,0-4c-0.1-1.3-0.5-2.5-1.3-3.3
		c-0.4-0.4-0.9-0.6-1.3-0.7c-0.2,0-0.5,0-0.7,0.1C18.6,1.8,18.3,2,18.2,2z"/>
</g>
<g>
	<path class="st0" d="M12.8,25.6c-0.1,0.2-0.2,0.4-0.2,0.5c0,0.1,0,0-0.1-0.1c-0.1-0.1,0,0,0,0c0,0,0,0,0,0c0,0-0.1,0-0.1,0
		c0,0,0.1-0.1,0.1-0.2c0.1-0.2,0.2-0.4,0.3-0.6c0.4-0.9,0.8-1.8,1.1-2.8c0.6-1.9,1-3.9,1.2-5.9c0.2-1.9,0-3.9-0.4-5.9
		c-0.2-1-0.5-1.9-0.9-2.8c-0.4-0.8-1-1.7-1.6-2.2c-0.3-0.3-0.7-0.4-1-0.4c-0.1,0-0.3,0-0.4,0.1c-0.2,0.1-0.3,0.2-0.4,0.3
		c-0.3,0.2-0.5,0.5-0.5,0.9c-0.1,0.4,0,0.7,0.1,1.1c0.3,0.9,0.8,1.7,1.3,2.6c0.5,0.9,1,1.8,1.4,2.8c0.8,1.9,1.2,4.1,1.2,6.2
		c0,1.1-0.1,2.1-0.2,3.1C13.5,23.5,13.3,24.6,12.8,25.6z M11.7,25c0.4-0.8,0.6-1.7,0.7-2.7c0.1-1,0.2-2,0.2-3c0-2-0.4-3.9-1.2-5.7
		C11,12.7,10.5,11.9,10,11c-0.5-0.9-1.1-1.8-1.5-2.9C8.4,7.7,8.3,6.9,8.4,6.3c0.1-0.7,0.5-1.3,1-1.7C9.7,4.3,10,4.2,10.3,4
		c0.3-0.1,0.7-0.2,1.1-0.2c0.7,0.1,1.3,0.4,1.8,0.8c1.8,1.6,2.5,3.8,2.9,5.8c0.4,2.1,0.6,4.2,0.4,6.3c-0.3,2.1-0.8,4.1-1.4,6.1
		c-0.3,1-0.7,2-1.2,2.9c-0.1,0.2-0.2,0.5-0.4,0.7c-0.1,0.1-0.2,0.3-0.4,0.4c-0.2,0.1-0.5,0.3-0.8,0.2c-0.1,0-0.3-0.1-0.4-0.1
		c-0.1-0.1-0.2-0.1-0.3-0.2c-0.3-0.3-0.3-0.7-0.2-0.9C11.5,25.5,11.6,25.2,11.7,25z"/>
</g>
<g>
	<path class="st0" d="M31.5,8.1c-0.7-0.3-1.5-0.5-2.2-0.2c-0.7,0.2-1.3,0.8-1.8,1.4c-1.1,1.4-1.7,3.1-2.2,4.9
		c-1.2,3.6-2.4,7.2-4.2,10.6c-0.9,1.7-1.9,3.3-3.2,4.8c-1.3,1.5-2.6,2.8-4.1,4c-1.4,1.2-3,2.4-4.7,3.3l-2.5,1.4L6,38.6l-0.3,0.2
		c-0.1,0-0.1,0.1-0.1,0.1c0,0,0,0,0,0c0,0,0-0.1,0-0.1c0,0,0,0,0,0c-0.2-0.1,0.1,0,0.2-0.1c1.7-0.5,3.5-1.2,5.1-2
		c1.6-0.8,3.2-1.8,4.7-2.9c3-2.2,5.7-4.8,8.1-7.6c1.2-1.4,2.4-2.9,3.5-4.3c1.1-1.5,2.1-3,3-4.6c0.9-1.6,1.7-3.3,2.2-5
		c0.2-0.8,0.4-1.7,0.2-2.5C32.5,9,32.2,8.4,31.5,8.1z M32.1,6.8l0.7,0.5c0.2,0.2,0.4,0.4,0.6,0.7C33.8,8.4,34,9,34.1,9.5
		c0.2,1.1,0,2.1-0.3,3.1c-0.6,1.9-1.5,3.6-2.4,5.3c-0.9,1.7-2,3.3-3.2,4.8c-1.1,1.5-2.3,3-3.6,4.4c-2.5,2.8-5.3,5.5-8.4,7.7
		c-3.2,2.2-6.5,4-10.3,5c-0.1,0-0.3,0-0.4,0c-0.2,0-0.4,0-0.7-0.2c-0.1-0.1-0.2-0.2-0.3-0.3c-0.1-0.1-0.1-0.3-0.1-0.4
		c0-0.3,0.1-0.5,0.2-0.6c0.1-0.2,0.3-0.3,0.4-0.4l0.3-0.2l0.6-0.4l2.5-1.4c1.6-0.9,3.1-2,4.5-3.2c1.4-1.2,2.7-2.6,3.9-3.9
		c1.2-1.4,2.1-3,3-4.6c1.7-3.3,2.9-6.8,4-10.4c0.5-1.8,1.2-3.7,2.4-5.3c0.6-0.8,1.4-1.6,2.5-2C29.9,6.1,31.2,6.3,32.1,6.8z"/>
</g>
<path class="st1" d="M4.9,37.5"/>
</svg>
